<!DOCTYPE svg PUBLIC "-//W3C//DTD SVG 20010904//EN" "http://www.w3.org/TR/2001/REC-SVG-20010904/DTD/svg10.dtd">
<svg version="1.0" xmlns="http://www.w3.org/2000/svg" width="306px" height="306px" viewBox="0 0 3060 3060" preserveAspectRatio="xMidYMid meet">
<g id="layer101" fill="#060606" stroke="none">
 <path d="M1543 2898 c-4 -7 -6 -21 -4 -32 2 -16 -2 -17 -36 -12 -76 11 -360 36 -437 39 -94 2 -88 10 -136 -153 -17 -58 -39 -132 -49 -165 -18 -58 -67 -226 -130 -450 -18 -60 -49 -168 -71 -240 -21 -71 -60 -202 -85 -290 -112 -387 -167 -573 -223 -760 -90 -303 -154 -528 -156 -550 -1 -19 6 -20 147 -23 l147 -3 0 -49 c0 -27 -5 -52 -10 -55 -19 -12 9 -36 28 -25 19 11 2091 560 2113 560 12 0 14 38 11 251 -1 138 -5 255 -8 260 -3 5 -9 7 -14 4 -5 -3 -133 -29 -284 -59 l-276 -53 0 76 c0 42 5 286 12 544 12 461 12 467 32 467 12 -1 86 -7 166 -15 122 -11 147 -11 159 0 15 15 19 26 81 195 44 122 41 115 93 248 24 62 37 106 31 112 -9 9 -164 29 -402 51 l-133 12 2 31 c2 17 0 36 -3 41 -3 6 -35 12 -70 13 -147 7 -469 32 -478 37 -5 3 -12 0 -17 -7z m-43 -662 c0 -44 -81 -1261 -85 -1264 -5 -5 -398 -82 -402 -79 -2 3 34 132 51 181 15 43 199 606 313 959 66 204 67 207 95 207 15 0 28 -2 28 -4z"/>
 </g>
<g id="layer102" fill="#ffffff" stroke="none">
 <path d="M856 2408 c-76 -260 -205 -702 -287 -983 -199 -678 -233 -794 -285 -967 -24 -81 -44 -154 -44 -163 0 -13 21 -15 140 -15 105 0 140 3 140 13 0 6 11 109 25 227 14 118 25 232 25 253 0 27 4 37 16 37 9 0 101 16 205 36 l189 37 96 296 c246 759 347 1067 355 1077 5 6 22 9 39 6 16 -2 30 -3 31 -1 5 38 36 555 33 558 -4 4 -487 60 -524 61 -11 0 -50 -118 -154 -472z"/>
 <path d="M1560 2862 c0 -55 -121 -1906 -125 -1910 -2 -2 -190 -40 -417 -84 -227 -43 -416 -82 -419 -86 -7 -9 -73 -611 -68 -617 3 -2 445 113 984 256 539 143 1012 268 1050 277 l70 17 -5 231 -5 230 -292 -56 -292 -56 5 80 c10 180 46 1687 41 1693 -4 3 -95 11 -204 19 -109 7 -226 15 -260 18 -55 5 -63 3 -63 -12z"/>
 <path d="M2107 2603 c-4 -87 -7 -211 -7 -275 l0 -117 43 -5 c82 -11 281 -26 285 -21 4 4 130 332 170 442 14 40 23 75 20 78 -5 5 -448 55 -487 55 -16 0 -19 -15 -24 -157z"/>
 </g>

</svg>